<svg aria-hidden="true" style="width:0;height:0;position:absolute;overflow:hidden" xmlns="http://www.w3.org/2000/svg"><defs><symbol id="icon-menu" viewBox="0 0 32 32"><path d="M2 6h28v6H2zm0 8h28v6H2zm0 8h28v6H2z"/></symbol><symbol id="icon-cross" viewBox="0 0 32 32"><path d="M31.708 25.708 22 16l9.708-9.708a1 1 0 0 0 0-1.414L27.122.292a1 1 0 0 0-1.414-.001L16 9.999 6.292.291a.998.998 0 0 0-1.414.001L.292 4.878a1 1 0 0 0 0 1.414L10 16 .292 25.708a.999.999 0 0 0 0 1.414l4.586 4.586a1 1 0 0 0 1.414 0L16 22l9.708 9.708a1 1 0 0 0 1.414 0l4.586-4.586a.999.999 0 0 0 0-1.414z"/></symbol><symbol id="icon-facebook" viewBox="0 0 32 32"><path d="M29 16c0-7.18-5.82-13-13-13S3 8.82 3 16s5.82 13 13 13c7.177-.007 12.993-5.823 13-12.999V16zM17 26.95V19h3a1 1 0 0 0 0-2h-3v-3a2 2 0 0 1 2-2h2a1 1 0 0 0 0-2h-2a4.013 4.013 0 0 0-4 3.999V17h-3a1 1 0 0 0 0 2h3v7.95c-5.629-.529-10-5.231-10-10.954 0-6.075 4.925-11 11-11s11 4.925 11 11c0 5.723-4.371 10.425-9.956 10.951L17 26.95z"/></symbol><symbol id="icon-instagram" viewBox="0 0 32 32"><path d="M16 10a6 6 0 1 0 0 12 6 6 0 1 0 0-12zm0 10a4 4 0 1 1 4-4 4.013 4.013 0 0 1-3.999 4H16zm5.5-16.5h-11a7 7 0 0 0-7 7v11a7 7 0 0 0 7 7h11a7 7 0 0 0 7-7v-11a7 7 0 0 0-7-7zm5 18a5 5 0 0 1-5 5h-11a5 5 0 0 1-5-5v-11a5 5 0 0 1 5-5h11a5 5 0 0 1 5 5v11zM24 9.5a1.5 1.5 0 0 1-3 0 1.5 1.5 0 0 1 3 0z"/></symbol></defs></svg>