<svg aria-hidden="true" style="width:0;height:0;position:absolute;overflow:hidden" xmlns="http://www.w3.org/2000/svg"><defs><symbol id="icon-menu" viewBox="0 0 32 32"><path d="M2 6h28v6H2zm0 8h28v6H2zm0 8h28v6H2z"/></symbol><symbol id="icon-cross" viewBox="0 0 32 32"><path d="M31.708 25.708 22 16l9.708-9.708a1 1 0 0 0 0-1.414L27.122.292a1 1 0 0 0-1.414-.001L16 9.999 6.292.291a.998.998 0 0 0-1.414.001L.292 4.878a1 1 0 0 0 0 1.414L10 16 .292 25.708a.999.999 0 0 0 0 1.414l4.586 4.586a1 1 0 0 0 1.414 0L16 22l9.708 9.708a1 1 0 0 0 1.414 0l4.586-4.586a.999.999 0 0 0 0-1.414z"/></symbol><symbol id="icon-facebook" viewBox="0 0 32 32"><path d="M29 16c0-7.18-5.82-13-13-13S3 8.82 3 16s5.82 13 13 13c7.177-.007 12.993-5.823 13-12.999V16zM17 26.95V19h3a1 1 0 0 0 0-2h-3v-3a2 2 0 0 1 2-2h2a1 1 0 0 0 0-2h-2a4.013 4.013 0 0 0-4 3.999V17h-3a1 1 0 0 0 0 2h3v7.95c-5.629-.529-10-5.231-10-10.954 0-6.075 4.925-11 11-11s11 4.925 11 11c0 5.723-4.371 10.425-9.956 10.951L17 26.95z"/></symbol><symbol id="facebook" xmlns="http://www.w3.org/2000/svg" viewBox="0 -1 76 76"><path d="M24 4C12.972 4 4 12.972 4 24s8.972 20 20 20 20-8.972 20-20S35.028 4 24 4zm0 3c9.407 0 17 7.593 17 17 0 8.38-6.033 15.306-14 16.72V29h3.625c.504 0 .93-.377.992-.877l.375-3A1 1 0 0 0 31 24h-4v-3.5c0-1.103.897-2 2-2h2a1 1 0 0 0 1-1v-3.375a1 1 0 0 0-.91-.996c-.06-.005-1.47-.129-3.256-.129C23.427 13 21 15.616 21 20.367V24h-4a1 1 0 0 0-1 1v3a1 1 0 0 0 1 1h4v11.72C13.033 39.307 7 32.38 7 24c0-9.407 7.593-17 17-17z"/></symbol><symbol id="instagram" xmlns="http://www.w3.org/2000/svg" viewBox="5 5 51 51"><path d="M31.82 12C13.44 12 12 13.44 12 31.82v.36C12 50.56 13.44 52 31.82 52h.36C50.56 52 52 50.56 52 32.18V32c0-18.548-1.452-20-20-20h-.18zM28 16h8c11.129 0 12 .871 12 12v8c0 11.129-.871 12-12 12h-8c-11.129 0-12-.871-12-12v-8c0-11.129.871-12 12-12zm13.994 4a2 2 0 1 0 .01 3.999 2 2 0 0 0-.01-3.999zm-10.017 2c-5.522.013-9.99 4.501-9.977 10.023.013 5.522 4.501 9.99 10.023 9.977 5.522-.013 9.99-4.501 9.977-10.023-.013-5.522-4.501-9.99-10.023-9.977zm.01 4a6 6 0 1 1 .025 12.002A6 6 0 0 1 31.986 26z"/></symbol><symbol id="telegram" xmlns="http://www.w3.org/2000/svg" viewBox="0 0 24 24"><path d="M20.303 2.984a2.437 2.437 0 0 0-.787.188c-.216.085-.988.41-2.22.926l-4.599 1.931C9.221 7.491 5.314 9.136 3.313 9.98c-.07.028-.348.114-.657.35-.309.235-.652.747-.652 1.308 0 .452.226.912.498 1.175.272.264.548.387.78.479v-.002c.78.31 3.109 1.243 3.663 1.465.197.59 1.042 3.113 1.242 3.748h-.001c.142.45.28.742.472.986.096.122.211.233.352.32.054.034.114.06.174.085l.025.007-.023-.005c.017.007.033.017.05.023.03.01.05.01.088.018.137.042.274.07.4.07.544 0 .878-.295.878-.295l.021-.016 2.348-1.986 2.875 2.66c.052.074.464.631 1.416.631.568 0 1.017-.281 1.304-.576.288-.295.467-.597.547-1.006l.002-.002c.064-.33 2.817-14.15 2.817-14.15l-.006.023c.085-.382.11-.752.01-1.129a1.62 1.62 0 0 0-.704-.937 1.65 1.65 0 0 0-.93-.239zm-.395 2.19c-.109.546-2.574 12.932-2.726 13.709l-4.153-3.842-2.806 2.373.777-3.039s5.363-5.428 5.686-5.744c.26-.253.314-.342.314-.43 0-.117-.06-.201-.2-.201-.124 0-.294.12-.384.176-1.144.713-6.015 3.489-8.41 4.851-.144-.057-2.309-.927-3.475-1.392a44934.035 44934.035 0 0 1 13.54-5.694c1.037-.435 1.579-.66 1.837-.767zm-2.756 13.851h.002l-.002.006c.002-.006 0 0 0-.006z"/></symbol></defs></svg>